<svg width="20" height="20" viewBox="0 0 20 20" fill="none" xmlns="http://www.w3.org/2000/svg">
<path d="M17.0795 0.821503C17.0795 0.367866 16.7118 0.00012207 16.2581 0.00012207H0.821381C0.367744 0.00012207 0 0.367866 0 0.821503V16.2583C0 16.7119 0.367744 17.0796 0.821381 17.0796C1.27502 17.0796 1.64276 16.7119 1.64276 16.2583V1.64288H16.2581C16.7118 1.64288 17.0795 1.27514 17.0795 0.821503Z" fill="white"/>
<path d="M19.1786 2.9206H3.74186C3.28822 2.9206 2.92048 3.28834 2.92048 3.74198V19.1787C2.92048 19.6324 3.28822 20.0001 3.74186 20.0001H19.1786C19.6323 20.0001 20 19.6324 20 19.1787V3.74198C20 3.28834 19.6323 2.9206 19.1786 2.9206ZM4.56324 18.3574V4.56336H18.3572V18.3574H4.56324Z" fill="white"/>
<path d="M10 15.828C11.3731 15.828 12.4902 14.7109 12.4902 13.3378C12.4902 12.9297 12.4902 10.0308 12.4902 9.66031L13.8048 10.3176C14.2105 10.5204 14.7039 10.356 14.9068 9.95025C15.1097 9.54449 14.9452 9.05111 14.5394 8.84823L12.0362 7.5966C11.491 7.3241 10.8474 7.72083 10.8474 8.33127V10.8476H9.99996C8.62689 10.8476 7.50977 11.9647 7.50977 13.3378C7.50977 14.7109 8.62689 15.828 10 15.828ZM10 12.4904H10.8475V13.3378C10.8475 13.8051 10.4673 14.1853 10 14.1853C9.53271 14.1853 9.15253 13.8051 9.15253 13.3378C9.15253 12.8705 9.53271 12.4904 10 12.4904Z" fill="white"/>
</svg>
