<svg width="20" height="20" viewBox="0 0 20 20" fill="none" xmlns="http://www.w3.org/2000/svg">
<path fill-rule="evenodd" clip-rule="evenodd" d="M4.5 0.00012207C6.98528 0.00012207 9 2.01484 9 4.50012V8.00012C9 8.55242 8.5523 9.00012 8 9.00012H4.5C2.01472 9.00012 0 6.9854 0 4.50012C0 2.01484 2.01472 0.00012207 4.5 0.00012207ZM7 4.50012C7 3.11941 5.88071 2.00012 4.5 2.00012C3.11929 2.00012 2 3.11941 2 4.50012C2 5.88083 3.11929 7.00012 4.5 7.00012H7V4.50012Z" fill="white"/>
<path fill-rule="evenodd" clip-rule="evenodd" d="M15.5 0.00012207C13.0147 0.00012207 11 2.01484 11 4.50012V8.00012C11 8.55242 11.4477 9.00012 12 9.00012H15.5C17.9853 9.00012 20 6.9854 20 4.50012C20 2.01484 17.9853 0.00012207 15.5 0.00012207ZM13 4.50012C13 3.11941 14.1193 2.00012 15.5 2.00012C16.8807 2.00012 18 3.11941 18 4.50012C18 5.88083 16.8807 7.00012 15.5 7.00012H13V4.50012Z" fill="white"/>
<path fill-rule="evenodd" clip-rule="evenodd" d="M9 15.5001C9 17.9854 6.98528 20.0001 4.5 20.0001C2.01472 20.0001 0 17.9854 0 15.5001C0 13.0148 2.01472 11.0001 4.5 11.0001H8C8.5523 11.0001 9 11.4478 9 12.0001V15.5001ZM4.5 18.0001C5.88071 18.0001 7 16.8808 7 15.5001V13.0001H4.5C3.11929 13.0001 2 14.1194 2 15.5001C2 16.8808 3.11929 18.0001 4.5 18.0001Z" fill="white"/>
<path fill-rule="evenodd" clip-rule="evenodd" d="M15.5 20.0001C13.0147 20.0001 11 17.9854 11 15.5001V12.0001C11 11.4478 11.4477 11.0001 12 11.0001H15.5C17.9853 11.0001 20 13.0148 20 15.5001C20 17.9854 17.9853 20.0001 15.5 20.0001ZM13 15.5001C13 16.8808 14.1193 18.0001 15.5 18.0001C16.8807 18.0001 18 16.8808 18 15.5001C18 14.1194 16.8807 13.0001 15.5 13.0001H13V15.5001Z" fill="white"/>
</svg>
