<svg width="20" height="20" viewBox="0 0 20 20" fill="none" xmlns="http://www.w3.org/2000/svg">
<path d="M19.2187 18.4377C17.3604 18.4377 16.5231 17.3091 15.7133 16.2176C15.2134 15.544 14.7413 14.9075 14.0539 14.5717C13.0546 14.0834 12.0213 14.051 10.8949 14.4728C9.97291 14.8181 9.08912 15.4237 8.15329 16.0647C6.4504 17.2313 4.68967 18.4377 2.34377 18.4377C1.91286 18.4377 1.56251 18.0872 1.56251 17.6564C1.56251 17.0152 2.2307 16.3702 2.71837 16.0029C3.04095 16.216 3.41632 16.3263 3.79474 16.3263C4.19833 16.3263 4.60498 16.2015 4.9535 15.9443L8.0419 13.6656C8.38904 13.4094 8.46289 12.9202 8.2067 12.573C7.9505 12.2259 7.46145 12.1521 7.11416 12.4082L4.02576 14.687C3.85837 14.8106 3.62368 14.7813 3.49185 14.6203L3.29501 14.3805C3.16439 14.2212 3.18041 13.9866 3.33148 13.8464L10.0269 7.63191L11.352 9.28139L10.0439 10.2465C9.69673 10.5027 9.62288 10.9919 9.87907 11.3391C10.1353 11.6864 10.6245 11.7602 10.9716 11.5039L12.745 10.1954H16.3281C16.423 10.1954 16.5172 10.1782 16.606 10.1443C18.636 9.37203 20 7.39875 20 5.23458C20 2.34821 17.6518 0.000164393 14.7656 0.000164393C13.8519 0.000164393 12.9521 0.239424 12.1635 0.691851C11.4069 1.12612 10.7661 1.74777 10.308 2.49042C10.3059 2.49347 10.304 2.49652 10.302 2.49973C10.2996 2.50385 10.2969 2.50781 10.2943 2.51209C10.2889 2.52078 10.2843 2.52994 10.2793 2.53894C10.2744 2.54749 10.2694 2.55588 10.265 2.56473C10.2552 2.58396 10.2462 2.60364 10.2381 2.62363C10.2348 2.63187 10.2319 2.64026 10.2288 2.64865C10.2239 2.66223 10.219 2.67581 10.2148 2.68955C10.212 2.69855 10.2097 2.7074 10.2073 2.7164C10.2053 2.72357 10.203 2.73059 10.2013 2.73776L9.40544 6.07687L7.32595 8.00697L7.10622 7.74269C6.83034 7.41096 6.33779 7.36579 6.0059 7.64152C5.67418 7.9174 5.62886 8.41011 5.90474 8.74184L6.17894 9.07143L2.26854 12.7012C1.68641 13.2414 1.50621 14.0622 1.75325 14.7748C1.58326 14.9034 1.39024 15.0621 1.19752 15.2469C0.414127 15.9984 0 16.8315 0 17.6564C0 18.9488 1.05134 20.0002 2.34377 20.0002C5.17353 20.0002 7.31542 18.5329 9.03648 17.3537C10.938 16.0509 12.0768 15.3445 13.3679 15.9756C13.7132 16.1442 14.0753 16.6322 14.4584 17.1487C15.3512 18.3521 16.5741 20.0002 19.2187 20.0002C19.6503 20.0002 20 19.6504 20 19.2189C20 18.7874 19.6503 18.4377 19.2187 18.4377ZM14.6968 8.63304H12.9098L10.9611 6.28943L11.3592 4.61919L14.6968 8.63304ZM14.7656 1.56268C16.7903 1.56268 18.4375 3.20988 18.4375 5.23458C18.4375 6.56256 17.7049 7.78816 16.5677 8.43895L11.946 2.88135C12.639 2.04745 13.6587 1.56268 14.7656 1.56268ZM0 5.66427C0 4.73653 0.751959 3.98457 1.6797 3.98457C1.71907 3.98457 1.75813 3.9864 1.79689 3.98915V2.03235C1.79689 1.19204 2.39412 0.458542 3.21703 0.288253C3.25717 0.27986 3.29806 0.274672 3.33911 0.272841C4.02225 0.241103 4.37854 0.136732 4.61277 0.0494507C5.01713 -0.101307 5.46696 0.10423 5.61772 0.508439C5.76848 0.912647 5.56294 1.36263 5.15873 1.51339C4.67319 1.69451 4.15775 1.79278 3.49704 1.82925C3.4154 1.86206 3.3594 1.94217 3.3594 2.03235V5.27471C3.3594 5.32903 3.35375 5.38213 3.34323 5.4334C3.3536 5.50893 3.3594 5.58584 3.3594 5.66427C3.3594 6.59186 2.60729 7.34397 1.6797 7.34397C0.751959 7.34397 0 6.59186 0 5.66427Z" fill="white"/>
</svg>
