<svg width="20" height="20" viewBox="0 0 20 20" fill="none" xmlns="http://www.w3.org/2000/svg">
<path fill-rule="evenodd" clip-rule="evenodd" d="M10 2C5.58172 2 2 5.58172 2 10C2 14.4183 5.58172 18 10 18C14.4183 18 18 14.4183 18 10C18 5.58172 14.4183 2 10 2ZM0 10C0 4.47715 4.47715 0 10 0C15.5228 0 20 4.47715 20 10C20 15.5228 15.5228 20 10 20C4.47715 20 0 15.5228 0 10ZM9.7702 5.9783C9.7797 5.98459 9.7891 5.99087 9.7985 5.99712L13.5562 8.5023C13.5646 8.5079 13.573 8.5135 13.5814 8.5191C13.7259 8.6154 13.8851 8.7214 14.0122 8.8239C14.1482 8.9336 14.3594 9.1244 14.4842 9.4254C14.6368 9.7933 14.6368 10.2067 14.4842 10.5746C14.3594 10.8756 14.1482 11.0664 14.0122 11.1761C13.8851 11.2786 13.726 11.3846 13.5815 11.4809C13.573 11.4865 13.5646 11.4921 13.5562 11.4977L9.7985 14.0029C9.7891 14.0091 9.7797 14.0154 9.7702 14.0217C9.5932 14.1398 9.4079 14.2634 9.2448 14.3518C9.0818 14.4401 8.7832 14.5853 8.4106 14.5631C7.97278 14.5369 7.56834 14.3205 7.30373 13.9707C7.07853 13.673 7.03373 13.344 7.01683 13.1594C6.9999 12.9746 6.99995 12.7519 7 12.5391C7 12.5278 7 12.5165 7 12.5052V7.49481C7 7.48354 7 7.47224 7 7.46091C6.99995 7.24806 6.9999 7.02535 7.01683 6.84056C7.03373 6.65603 7.07853 6.32699 7.30373 6.0293C7.56834 5.67952 7.97278 5.46307 8.4106 5.43692C8.7832 5.41468 9.0818 5.55992 9.2448 5.64821C9.4079 5.73662 9.5932 5.8602 9.7702 5.9783ZM9 7.86852V12.1315L12.1972 10L9 7.86852ZM12.7652 10.3879C12.7652 10.3878 12.7656 10.3883 12.7652 10.3879V10.3879Z" fill="white"/>
</svg>
