<svg width="81" height="41" viewBox="0 0 81 41" fill="none" xmlns="http://www.w3.org/2000/svg">
<path d="M0.75 0.750122H50C55.1086 0.750122 59.25 4.89149 59.25 10.0001V31.0001C59.25 36.1088 55.1086 40.2501 50 40.2501H10C4.89137 40.2501 0.75 36.1088 0.75 31.0001V0.750122Z" stroke="white" stroke-width="1.5"/>
<path d="M29.562 17.6733C29.562 19.1911 30.69 21.0461 32.8238 23.0379C34.0104 24.1454 35.2606 25.0699 36.215 25.7181C35.8922 26.1298 35.6501 26.6078 35.5128 27.128C34.4856 26.4395 33.0845 25.4181 31.7579 24.1798C29.2643 21.8523 28 19.6631 28 17.6733C28 16.0146 28.5446 14.5862 29.575 13.5428C30.5574 12.5479 31.9119 12.0001 33.3893 12.0001C35.3312 12.0001 36.6427 12.7486 37.4011 13.3765C37.6077 13.5475 37.8149 13.7479 38.0038 13.9609C38.1884 13.7541 38.3905 13.5591 38.5916 13.3914C39.3527 12.7567 40.6669 12.0001 42.6056 12.0001C44.0829 12.0001 45.4374 12.5479 46.4198 13.5428C47.0686 14.1998 47.5245 15.0096 47.7736 15.9334L46.3397 16.6882C45.9713 14.8064 44.5385 13.5622 42.6056 13.5622C41.6768 13.5622 40.8487 13.7791 40.1361 14.2062C38.826 15.1776 38.0232 16.8721 38.0232 16.8721C38.0232 16.8721 37.7456 16.2611 37.2307 15.5627C37.2328 15.5717 37.2345 15.5771 37.2346 15.5772C37.2326 15.5716 37.2303 15.5653 37.2278 15.5588C36.9191 15.1407 36.5254 14.6918 36.0551 14.3237C35.435 13.912 34.5576 13.5622 33.3893 13.5622C31.1358 13.5622 29.562 15.2528 29.562 17.6733ZM48 26.3713C48 26.4133 47.9957 26.454 47.9895 26.4941C47.9925 26.544 47.9948 26.5941 47.9948 26.6447C47.9948 27.9367 46.9436 28.9879 45.6517 28.9879C44.3596 28.9879 43.3085 27.9367 43.3085 26.6447C43.3085 25.3528 44.3596 24.3016 45.6517 24.3016C45.9274 24.3016 46.192 24.3498 46.438 24.4377V20.0455C45.4109 20.4128 43.7433 20.8707 41.6325 20.9648V27.8146C41.6325 27.8537 41.6287 27.8918 41.6232 27.9294C41.6267 27.9823 41.6293 28.0357 41.6293 28.0896C41.6293 29.3817 40.5781 30.4327 39.2862 30.4327C37.994 30.4327 36.943 29.3817 36.943 28.0896C36.943 26.7976 37.994 25.7465 39.2862 25.7465C39.5611 25.7465 39.8251 25.7945 40.0705 25.882V19.42H40.8514C44.4359 19.42 46.8329 18.1938 46.8567 18.1813L47.9983 17.587L48 18.8733V26.3713ZM40.0671 28.0896C40.0671 27.659 39.7168 27.3087 39.2862 27.3087C38.8554 27.3087 38.5051 27.659 38.5051 28.0896C38.5051 28.5204 38.8554 28.8707 39.2862 28.8707C39.7168 28.8707 40.0671 28.5204 40.0671 28.0896ZM46.4326 26.6447C46.4326 26.214 46.0823 25.8636 45.6517 25.8636C45.2209 25.8636 44.8706 26.214 44.8706 26.6447C44.8706 27.0753 45.2209 27.4258 45.6517 27.4258C46.0823 27.4258 46.4326 27.0753 46.4326 26.6447Z" fill="white"/>
<path d="M21.4999 20.5001H17.5V16.5001C17.5 16.2242 17.276 16.0001 17 16.0001C16.724 16.0001 16.5 16.2242 16.5 16.5001V20.5001H12.5C12.224 20.5001 12 20.7241 12 21.0001C12 21.2761 12.224 21.5001 12.5 21.5001H16.5V25.5001C16.5 25.7761 16.724 26.0001 17 26.0001C17.276 26.0001 17.5 25.7761 17.5 25.5001V21.5001H21.4999C21.776 21.5001 22 21.2761 22 21.0001C22 20.7241 21.776 20.5001 21.4999 20.5001Z" fill="white" stroke="white" stroke-width="0.646075"/>
<path d="M80.9596 15.4799C80.9596 16.2972 80.2971 16.9597 79.4798 16.9597C78.6625 16.9597 78 16.2972 78 15.4799C78 14.6627 78.6625 14.0001 79.4798 14.0001C80.2971 14.0001 80.9596 14.6627 80.9596 15.4799Z" fill="white"/>
<path d="M80.9596 20.2489C80.9596 21.0661 80.2971 21.7287 79.4798 21.7287C78.6625 21.7287 78 21.0661 78 20.2489C78 19.4316 78.6625 18.7691 79.4798 18.7691C80.2971 18.7691 80.9596 19.4316 80.9596 20.2489Z" fill="white"/>
<path d="M80.9596 25.0178C80.9596 25.8351 80.2971 26.4976 79.4798 26.4976C78.6625 26.4976 78 25.8351 78 25.0178C78 24.2005 78.6625 23.538 79.4798 23.538C80.2971 23.538 80.9596 24.2005 80.9596 25.0178Z" fill="white"/>
</svg>
    