<svg width="15" height="15" viewBox="0 0 15 15" fill="none" xmlns="http://www.w3.org/2000/svg">
<path d="M14.3002 0.577407C13.8555 0.201657 13.2533 0.042657 12.6473 0.143157L6.606 1.15041C5.42475 1.34691 4.5 2.43891 4.5 3.63666V9.30441C4.05675 9.04566 3.549 8.88666 3 8.88666C1.3455 8.88666 0 10.2322 0 11.8867C0 13.5412 1.3455 14.8867 3 14.8867C4.6545 14.8867 6 13.5412 6 11.8867V6.52191L13.5 5.27166V9.30366C13.0567 9.04566 12.5482 8.88666 12 8.88666C10.3455 8.88666 9 10.2322 9 11.8867C9 13.5412 10.3455 14.8867 12 14.8867C13.6545 14.8867 15 13.5412 15 11.8867V2.13666C15 1.52241 14.745 0.953907 14.3002 0.577407ZM3 13.3867C2.17275 13.3867 1.5 12.7139 1.5 11.8867C1.5 11.0594 2.17275 10.3867 3 10.3867C3.82725 10.3867 4.5 11.0594 4.5 11.8867C4.5 12.7139 3.82725 13.3867 3 13.3867ZM6 5.00091V3.63666C6 3.17616 6.39825 2.70591 6.85275 2.63016L12.8932 1.62291C13.0665 1.59441 13.221 1.62891 13.3305 1.72191C13.44 1.81416 13.5 1.96191 13.5 2.13666V3.75141L6 5.00091ZM12 13.3867C11.1727 13.3867 10.5 12.7139 10.5 11.8867C10.5 11.0594 11.1727 10.3867 12 10.3867C12.8272 10.3867 13.5 11.0594 13.5 11.8867C13.5 12.7139 12.8272 13.3867 12 13.3867Z" fill="white"/>
</svg>
