<svg width="28" height="25" viewBox="0 0 28 25" fill="none" xmlns="http://www.w3.org/2000/svg">
<path d="M2.11858 7.69454C2.11858 9.7531 3.64839 12.269 6.54243 14.9704C8.1519 16.4725 9.84748 17.7264 11.142 18.6055C10.7041 19.1639 10.3758 19.8123 10.1896 20.5178C8.79636 19.584 6.89611 18.1987 5.09685 16.5192C1.71482 13.3624 0 10.3932 0 7.69454C0 5.44474 0.738618 3.50745 2.13618 2.0923C3.46854 0.742963 5.30567 0 7.3094 0C9.94329 0 11.7221 1.01511 12.7506 1.86672C13.0308 2.09872 13.3119 2.37045 13.5681 2.65935C13.8185 2.37893 14.0925 2.11445 14.3653 1.887C15.3976 1.02608 17.18 0 19.8094 0C21.8131 0 23.6502 0.742963 24.9826 2.0923C25.8626 2.98344 26.481 4.08175 26.8187 5.33464L24.874 6.35844C24.3744 3.80608 22.4311 2.11858 19.8094 2.11858C18.5497 2.11858 17.4265 2.41287 16.4601 2.99214C14.6832 4.3096 13.5944 6.60782 13.5944 6.60782C13.5944 6.60782 13.2179 5.77918 12.5195 4.83195C12.5224 4.84416 12.5246 4.85141 12.5248 4.85161C12.5221 4.84396 12.519 4.83547 12.5155 4.82657C12.0969 4.25952 11.5629 3.65066 10.9251 3.15149C10.084 2.59313 8.89404 2.11858 7.3094 2.11858C4.2531 2.11858 2.11858 4.41163 2.11858 7.69454ZM27.1258 19.4915C27.1258 19.5484 27.12 19.6037 27.1115 19.6581C27.1157 19.7258 27.1188 19.7937 27.1188 19.8624C27.1188 21.6147 25.6931 23.0404 23.9408 23.0404C22.1883 23.0404 20.7628 21.6147 20.7628 19.8624C20.7628 18.1101 22.1883 16.6844 23.9408 16.6844C24.3148 16.6844 24.6736 16.7498 25.0072 16.869V10.9118C23.6142 11.41 21.3524 12.031 18.4897 12.1587V21.4491C18.4897 21.5021 18.4845 21.5538 18.477 21.6047C18.4818 21.6765 18.4853 21.749 18.4853 21.822C18.4853 23.5745 17.0596 25 15.3073 25C13.5548 25 12.1293 23.5745 12.1293 21.822C12.1293 20.0697 13.5548 18.644 15.3073 18.644C15.6803 18.644 16.0383 18.7092 16.3711 18.8278V10.0635H17.4303C22.2918 10.0635 25.5428 8.40045 25.5751 8.38348L27.1236 7.5774L27.1258 9.32202V19.4915ZM16.3665 21.822C16.3665 21.238 15.8913 20.7628 15.3073 20.7628C14.7231 20.7628 14.2479 21.238 14.2479 21.822C14.2479 22.4062 14.7231 22.8814 15.3073 22.8814C15.8913 22.8814 16.3665 22.4062 16.3665 21.822ZM25 19.8624C25 19.2781 24.5248 18.803 23.9408 18.803C23.3566 18.803 22.8814 19.2781 22.8814 19.8624C22.8814 20.4464 23.3566 20.9218 23.9408 20.9218C24.5248 20.9218 25 20.4464 25 19.8624Z" fill="white"/>
</svg>
