<svg width="20" height="20" viewBox="0 0 20 20" fill="none" xmlns="http://www.w3.org/2000/svg">
<path d="M19.067 0.618468C18.474 0.117468 17.671 -0.0945319 16.863 0.0394681L8.808 1.38247C7.233 1.64447 6 3.10047 6 4.69747V12.2545C5.409 11.9095 4.732 11.6975 4 11.6975C1.794 11.6975 0 13.4915 0 15.6975C0 17.9035 1.794 19.6975 4 19.6975C6.206 19.6975 8 17.9035 8 15.6975V8.54447L18 6.87747V12.2535C17.409 11.9095 16.731 11.6975 16 11.6975C13.794 11.6975 12 13.4915 12 15.6975C12 17.9035 13.794 19.6975 16 19.6975C18.206 19.6975 20 17.9035 20 15.6975V2.69747C20 1.87847 19.66 1.12047 19.067 0.618468ZM4 17.6975C2.897 17.6975 2 16.8005 2 15.6975C2 14.5945 2.897 13.6975 4 13.6975C5.103 13.6975 6 14.5945 6 15.6975C6 16.8005 5.103 17.6975 4 17.6975ZM8 6.51647V4.69747C8 4.08347 8.531 3.45647 9.137 3.35547L17.191 2.01247C17.422 1.97447 17.628 2.02047 17.774 2.14447C17.92 2.26747 18 2.46447 18 2.69747V4.85047L8 6.51647ZM16 17.6975C14.897 17.6975 14 16.8005 14 15.6975C14 14.5945 14.897 13.6975 16 13.6975C17.103 13.6975 18 14.5945 18 15.6975C18 16.8005 17.103 17.6975 16 17.6975Z" fill="white"/>
</svg>
