<svg width="24" height="23" viewBox="0 0 24 23" fill="none" xmlns="http://www.w3.org/2000/svg">
<path d="M22.264 0.722024C21.5715 0.137022 20.6339 -0.110525 19.6904 0.0459432L10.2848 1.61412C8.44576 1.92005 7.00602 3.62018 7.00602 5.48495V14.309C6.31593 13.9062 5.52541 13.6586 4.67068 13.6586C2.0948 13.6586 0 15.7534 0 18.3293C0 20.9052 2.0948 23 4.67068 23C7.24656 23 9.34136 20.9052 9.34136 18.3293V9.97698L21.0181 8.03047V14.3079C20.328 13.9062 19.5363 13.6586 18.6827 13.6586C16.1068 13.6586 14.012 15.7534 14.012 18.3293C14.012 20.9052 16.1068 23 18.6827 23C21.2586 23 23.3534 20.9052 23.3534 18.3293V3.14961C23.3534 2.19329 22.9564 1.30819 22.264 0.722024ZM4.67068 20.6647C3.38274 20.6647 2.33534 19.6173 2.33534 18.3293C2.33534 17.0414 3.38274 15.994 4.67068 15.994C5.95862 15.994 7.00602 17.0414 7.00602 18.3293C7.00602 19.6173 5.95862 20.6647 4.67068 20.6647ZM9.34136 7.60894V5.48495C9.34136 4.768 9.96139 4.03587 10.669 3.91794L20.0734 2.34976C20.3431 2.30538 20.5837 2.3591 20.7542 2.50389C20.9246 2.64751 21.0181 2.87754 21.0181 3.14961V5.6636L9.34136 7.60894ZM18.6827 20.6647C17.3948 20.6647 16.3474 19.6173 16.3474 18.3293C16.3474 17.0414 17.3948 15.994 18.6827 15.994C19.9707 15.994 21.0181 17.0414 21.0181 18.3293C21.0181 19.6173 19.9707 20.6647 18.6827 20.6647Z" fill="#8F00FF"/>
</svg>
