<svg width="21" height="20" viewBox="0 0 21 20" fill="none" xmlns="http://www.w3.org/2000/svg">
<path d="M12.1094 17.1343L12.094 17.1262L12.0784 17.1185C11.0255 16.5984 9.81148 16.5984 8.75854 17.1185L8.75075 17.1224L8.74302 17.1263L5.92986 18.5649C5.92946 18.5651 5.92906 18.5653 5.92866 18.5655C5.05535 19.0078 4.1507 18.2524 4.305 17.4256L4.30503 17.4256L4.30651 17.4173L4.85761 14.35C5.08884 13.1807 4.69203 11.9695 3.85436 11.1419L3.84925 11.1368L3.84407 11.1318L1.58101 8.94671L1.58103 8.94669L1.57485 8.9408C0.941865 8.33793 1.29431 7.22775 2.18141 7.11249L2.18142 7.11256L2.19496 7.11065L5.35809 6.66444C6.52211 6.50885 7.57783 5.75831 8.11413 4.69952L8.11416 4.69953L8.11823 4.69135L9.52623 1.86043L9.52624 1.86044L9.52866 1.85553C9.92583 1.04815 11.1129 1.04855 11.5096 1.85537L11.5096 1.85537L11.5121 1.86043L12.9201 4.69135L12.9201 4.69136L12.9242 4.6995C13.4437 5.72508 14.4308 6.50412 15.6299 6.66444L18.7854 7.10957C19.7557 7.26098 20.0379 8.34573 19.4132 8.9408L19.4131 8.94078L19.407 8.94671L17.1439 11.1318L17.1439 11.1318L17.1339 11.1416C16.2941 11.971 15.9202 13.1069 16.0681 14.2742L16.0709 14.2964L16.0745 14.3185L16.5761 17.3898C16.7208 18.3699 15.7602 19.0409 14.9149 18.6185L12.1094 17.1343Z" stroke="url(#paint0_linear_201_191)" stroke-width="2.5"/>
<defs>
<linearGradient id="paint0_linear_201_191" x1="21" y1="20.0001" x2="-7.58796" y2="20.8899" gradientUnits="userSpaceOnUse">
<stop stop-color="#9C2FEA"/>
<stop offset="1" stop-color="#E327F0"/>
</linearGradient>
</defs>
</svg>

