<svg width="20" height="20" viewBox="0 0 20 20" fill="none" xmlns="http://www.w3.org/2000/svg">
<path d="M9.16667 15.0001C9.16667 15.4601 9.54 15.8335 10 15.8335C10.46 15.8335 10.8333 15.4601 10.8333 15.0001V5.00012C10.8333 4.54012 10.46 4.16679 10 4.16679C9.54 4.16679 9.16667 4.54012 9.16667 5.00012V15.0001Z" fill="white"/>
<path d="M0.833333 5.00012C0.373332 5.00012 0 5.37345 0 5.83346V14.1668C0 14.6268 0.373332 15.0001 0.833333 15.0001C1.29333 15.0001 1.66667 14.6268 1.66667 14.1668V5.83346C1.66667 5.37345 1.29333 5.00012 0.833333 5.00012Z" fill="white"/>
<path d="M7.91667 13.3335V6.66679C7.91667 6.20679 7.54334 5.83346 7.08333 5.83346C6.62333 5.83346 6.25 6.20679 6.25 6.66679V13.3335C6.25 13.7935 6.62333 14.1668 7.08333 14.1668C7.54334 14.1668 7.91667 13.7935 7.91667 13.3335Z" fill="white"/>
<path d="M4.16667 12.5001C4.62667 12.5001 5 12.1268 5 11.6668V8.33346C5 7.87345 4.62667 7.50012 4.16667 7.50012C3.70667 7.50012 3.33333 7.87345 3.33333 8.33346V11.6668C3.33333 12.1268 3.70667 12.5001 4.16667 12.5001Z" fill="white"/>
<path d="M13.75 13.3335V6.66679C13.75 6.20679 13.3767 5.83346 12.9167 5.83346C12.4567 5.83346 12.0833 6.20679 12.0833 6.66679V13.3335C12.0833 13.7935 12.4567 14.1668 12.9167 14.1668C13.3767 14.1668 13.75 13.7935 13.75 13.3335Z" fill="white"/>
<path d="M19.1667 5.00012C18.7067 5.00012 18.3333 5.37345 18.3333 5.83346V14.1668C18.3333 14.6268 18.7067 15.0001 19.1667 15.0001C19.6267 15.0001 20 14.6268 20 14.1668V5.83346C20 5.37345 19.6267 5.00012 19.1667 5.00012Z" fill="white"/>
<path d="M15.8333 7.50012C15.3733 7.50012 15 7.87345 15 8.33346V11.6668C15 12.1268 15.3733 12.5001 15.8333 12.5001C16.2933 12.5001 16.6667 12.1268 16.6667 11.6668V8.33346C16.6667 7.87345 16.2933 7.50012 15.8333 7.50012Z" fill="white"/>
<path d="M9.16667 19.1668C9.16667 19.6268 9.54 20.0001 10 20.0001C10.46 20.0001 10.8333 19.6268 10.8333 19.1668V18.3335C10.8333 17.8735 10.46 17.5001 10 17.5001C9.54 17.5001 9.16667 17.8735 9.16667 18.3335V19.1668Z" fill="white"/>
<path d="M10 2.50012C10.46 2.50012 10.8333 2.12679 10.8333 1.66679V0.833455C10.8333 0.373454 10.46 0.00012207 10 0.00012207C9.54 0.00012207 9.16667 0.373454 9.16667 0.833455V1.66679C9.16667 2.12679 9.54 2.50012 10 2.50012Z" fill="white"/>
</svg>
